<?xml version="1.0" encoding="UTF-8"?>
<!DOCTYPE svg PUBLIC "-//W3C//DTD SVG 1.1//EN" "http://www.w3.org/Graphics/SVG/1.1/DTD/svg11.dtd">
<!-- Creator: CorelDRAW X7 -->
<svg xmlns="http://www.w3.org/2000/svg" xml:space="preserve" width="182mm" height="150mm" version="1.1" shape-rendering="geometricPrecision" text-rendering="geometricPrecision" image-rendering="optimizeQuality" fill-rule="evenodd" clip-rule="evenodd"
viewBox="0 0 18200 15000"
 xmlns:xlink="http://www.w3.org/1999/xlink">
 <defs>
   <linearGradient id="id0" gradientUnits="userSpaceOnUse" x1="6372.49" y1="4057.42" x2="7449.64" y2="6448.22">
    <stop offset="0" stop-opacity="1" stop-color="#3023AE"/>
    <stop offset="1" stop-opacity="1" stop-color="#C86DD7"/>
   </linearGradient>
   <linearGradient id="id1" gradientUnits="userSpaceOnUse" x1="13668" y1="7301" x2="12504" y2="8994">
    <stop offset="0" stop-opacity="1" stop-color="#17EAD9"/>
    <stop offset="1" stop-opacity="1" stop-color="#6078EA"/>
   </linearGradient>
   <linearGradient id="id2" gradientUnits="userSpaceOnUse" x1="-12415" y1="13721" x2="13542" y2="13605">
    <stop offset="0" stop-opacity="1" stop-color="#3023AE"/>
    <stop offset="0.988235" stop-opacity="1" stop-color="#C86DD7"/>
    <stop offset="1" stop-opacity="1" stop-color="#C86DD7"/>
   </linearGradient>
   <linearGradient id="id3" gradientUnits="userSpaceOnUse" x1="-6939" y1="15295" x2="10066" y2="15322">
    <stop offset="0" stop-opacity="1" stop-color="#17EAD9"/>
    <stop offset="0.490196" stop-opacity="1" stop-color="#3BB1E1"/>
    <stop offset="1" stop-opacity="1" stop-color="#6078EA"/>
   </linearGradient>
   <linearGradient id="id4" gradientUnits="userSpaceOnUse" x1="-10914" y1="15170" x2="8406" y2="15196">
    <stop offset="0" stop-opacity="1" stop-color="#17EAD9"/>
    <stop offset="0.490196" stop-opacity="1" stop-color="#3BB1E1"/>
    <stop offset="1" stop-opacity="1" stop-color="#6078EA"/>
   </linearGradient>
 </defs>
 <g id="Camada_x0020_1">
  <metadata id="CorelCorpID_0Corel-Layer"/>
  <path fill="url(#id0)" d="M7850 2273c61,-17 124,15 140,71 15,57 -22,116 -84,133 -62,17 -124,-15 -140,-71 -15,-57 22,-116 84,-133zm-4006 5679l623 0c137,0 249,112 249,249l0 0c0,137 -112,249 -249,249l-623 0c-137,0 -249,-112 -249,-249l0 0c0,-137 112,-249 249,-249zm1343 -13l1447 0 -124 -453c-15,3 -30,4 -46,4l-2537 0c-138,0 -250,-112 -250,-249l0 0c0,-137 112,-249 250,-249l2446 0 -125 -454 -820 0c-137,0 -249,-112 -249,-250l0 0c0,-137 112,-249 249,-249l683 0 -130 -474 -3133 0c-137,0 -249,-112 -249,-249l0 0c0,-137 112,-249 249,-249l2995 0 -121 -441 -1511 0c-137,0 -249,-112 -249,-249l0 0c0,-137 112,-249 249,-249l1374 0 -123 -448 -1970 0c-140,0 -255,-114 -255,-255l0 0c0,-140 115,-254 255,-254l1838 0c-24,-263 144,-514 406,-587l3150 -867c295,-81 602,93 684,388l570 2071 -497 431 -569 -2237 -3070 795 1121 4408 3071 -794 -285 -1120 452 -674 612 2222c81,294 -94,602 -389,683l-3150 867c-271,75 -553,-67 -660,-320l-1589 0c-137,0 -249,-112 -249,-249l0 0c0,-137 112,-249 249,-249zm-1922 -1906l1499 0c137,0 249,112 249,249l0 0c0,137 -112,249 -249,249l-1499 0c-137,0 -249,-112 -249,-249l0 0c0,-137 112,-249 249,-249zm-370 -1919l626 0c137,0 249,113 249,250l0 0c0,137 -112,249 -249,249l-626 0c-137,0 -250,-112 -250,-249l0 0c0,-137 113,-250 250,-250zm4116 -1622l541 -147c60,-17 122,19 139,79l0 0c16,61 -20,123 -80,139l-541 147c-60,17 -123,-19 -139,-79l0 0c-16,-60 19,-123 80,-139zm1741 4862c218,-60 442,60 499,267 57,208 -74,424 -292,485 -219,60 -442,-60 -499,-267 -57,-208 74,-425 292,-485z"/>
  <path fill="none" stroke="#373435" stroke-width="20" d="M-14248 -857l561 0c62,0 113,51 113,113l0 1c0,62 -51,113 -113,113l-561 0c-62,0 -113,-51 -113,-113l0 -1c0,-62 51,-113 113,-113z"/>
  <path fill="url(#id1)" d="M8215 4401l883 667 552 -479 497 -430 1822 -1578 -2646 3949 -1687 -1495 -476 66 -539 -468c44,-189 89,-378 133,-567l472 387 364 -66 26 -159 -416 -338c14,-86 6,-35 43,-258 123,-28 245,-57 367,-86l608 500 -3 355z"/>
  <path fill="url(#id2)" fill-rule="nonzero" d="M2275 10153c16,-29 44,-50 86,-50 46,0 81,26 81,67l0 685c0,153 117,255 347,255 210,0 312,-83 373,-215l381 -742c14,-29 47,-50 86,-50 47,0 80,26 80,67l0 919 277 0 0 -929c0,-152 -117,-253 -350,-253 -209,0 -309,82 -370,215l-381 742c-14,29 -47,48 -89,48 -46,0 -79,-26 -79,-65l0 -687c0,-152 -116,-253 -349,-253 -210,0 -310,82 -370,215l-487 967 293 0 471 -936zm2742 -226c-456,0 -710,193 -710,584 0,389 251,578 710,578l214 0c459,0 710,-189 710,-578 0,-391 -254,-584 -710,-584l-214 0zm214 203c303,0 433,114 433,379 0,267 -130,377 -433,377l-214 0c-305,0 -435,-110 -435,-375 0,-267 132,-381 435,-381l214 0zm1164 -203c-88,0 -130,31 -130,95l0 973c0,63 42,94 130,94l698 0c371,0 527,-134 527,-320 0,-134 -84,-220 -233,-265 146,-43 226,-124 226,-258 0,-190 -156,-319 -527,-319l-691 0zm140 660l565 0c161,0 243,51 243,149 0,95 -77,152 -243,152l-535 0c-19,0 -30,-5 -30,-19l0 -282zm0 -439c0,-14 11,-21 30,-21l531 0c167,0 240,60 240,151 0,95 -80,140 -243,140l-558 0 0 -270zm2677 -221c-456,0 -710,191 -710,582 0,389 251,580 710,580l214 0c35,0 68,0 100,-3l121 186 277 0 -149 -231c235,-79 361,-256 361,-532 0,-391 -254,-582 -710,-582l-214 0zm28 713l158 246 -186 0c-305,0 -435,-112 -435,-377 0,-265 132,-379 435,-379l214 0c303,0 433,114 433,379 0,184 -63,296 -205,346l-137 -215 -277 0zm1208 -713l0 792c0,245 172,370 507,370l331 0c335,0 510,-125 510,-370l0 -792 -270 0 0 777c0,115 -82,182 -259,182l-279 0c-182,0 -261,-67 -261,-182l0 -777 -279 0zm1716 0l0 1162 274 0 0 -1162 -274 0zm1306 0c-457,0 -710,191 -710,582 0,389 251,580 710,580l607 0 0 -203 -607 0c-305,0 -436,-112 -436,-377 0,-267 133,-379 436,-379l607 0 0 -203 -607 0zm935 0l0 1162 275 0 0 -485 151 0c296,0 352,17 438,141l240 344 307 0 -254 -365c-93,-134 -165,-194 -312,-223 129,-42 203,-109 273,-212l247 -362 -296 0 -240 348c-88,127 -132,145 -403,145l-151 0 0 -493 -275 0z"/>
  <path fill="url(#id3)" fill-rule="nonzero" d="M1563 12582c12,-22 33,-37 64,-37 34,0 60,19 60,50l0 505c0,113 86,188 256,188 154,0 230,-61 275,-159l281 -547c10,-22 34,-37 64,-37 34,0 58,19 58,50l0 678 204 0 0 -686c0,-112 -85,-187 -257,-187 -155,0 -229,61 -273,159l-282 547c-10,22 -34,36 -65,36 -34,0 -59,-19 -59,-48l0 -507c0,-112 -85,-187 -257,-187 -155,0 -229,61 -273,159l-359 714 216 0 347 -691zm1882 20c-242,0 -393,109 -393,336 0,226 151,335 393,335l191 0c240,0 393,-109 393,-335 0,-227 -153,-336 -393,-336l-191 0zm174 130c156,0 227,61 227,206 0,144 -71,204 -227,204l-156 0c-158,0 -227,-60 -227,-204 0,-145 69,-206 227,-206l156 0zm628 -421l0 675c0,193 115,287 334,287l250 0c241,0 392,-109 392,-335 0,-227 -151,-336 -392,-336l-402 0 0 -291 -182 0zm565 421c158,0 227,61 227,206 0,144 -69,204 -227,204l-178 0c-148,0 -205,-48 -205,-163l0 -247 383 0zm629 -130l0 671 182 0 0 -671 -182 0zm0 -252l0 156 184 0 0 -156 -184 0zm443 -39l0 962 182 0 0 -962 -182 0zm740 291c-226,0 -316,94 -316,221l0 229c0,127 90,221 316,221l555 0 0 -131 -555 0c-99,0 -139,-39 -139,-93l0 -48 431 0c223,0 308,-70 308,-193 0,-130 -91,-206 -306,-206l-294 0zm-139 223c0,-53 40,-93 139,-93l292 0c89,0 129,33 129,84 0,49 -36,80 -134,80l-426 0 0 -71z"/>
  <path fill="url(#id4)" fill-rule="nonzero" d="M8398 12583c12,-20 31,-29 58,-29 28,0 47,9 57,29l352 690 225 0 -392 -762c-41,-80 -120,-111 -240,-111 -122,0 -201,31 -244,111l-407 762 223 0 368 -690zm1106 19c-211,0 -296,75 -296,196 0,103 62,195 313,195l215 0c91,0 128,22 128,75 0,52 -34,74 -118,74l-527 0 0 131 527 0c213,0 297,-84 297,-203 0,-105 -64,-190 -314,-190l-213 0c-102,0 -129,-25 -129,-72 0,-51 34,-76 118,-76l502 0 0 -130 -503 0zm1006 0c-211,0 -295,75 -295,196 0,103 62,195 312,195l215 0c91,0 129,22 129,75 0,52 -35,74 -119,74l-527 0 0 131 527 0c213,0 297,-84 297,-203 0,-105 -63,-190 -314,-190l-213 0c-101,0 -129,-25 -129,-72 0,-51 35,-76 119,-76l501 0 0 -130 -503 0zm754 0l0 671 182 0 0 -671 -182 0zm0 -252l0 156 184 0 0 -156 -184 0zm696 252c-212,0 -296,75 -296,196 0,103 62,195 313,195l214 0c91,0 129,22 129,75 0,52 -34,74 -118,74l-528 0 0 131 528 0c213,0 297,-84 297,-203 0,-105 -64,-190 -314,-190l-213 0c-102,0 -129,-25 -129,-72 0,-51 34,-76 118,-76l502 0 0 -130 -503 0zm662 0l0 130 124 0 0 310c0,175 81,231 268,231l163 0 0 -123 -125 0c-86,0 -122,-26 -122,-101l0 -317 251 0 0 -130 -251 0 0 -158 -184 0 0 158 -124 0zm1033 0c-227,0 -316,94 -316,221l0 229c0,127 89,221 316,221l554 0 0 -131 -554 0c-100,0 -139,-39 -139,-93l0 -48 431 0c223,0 307,-70 307,-193 0,-130 -91,-206 -306,-206l-293 0zm-139 223c0,-53 39,-93 139,-93l292 0c89,0 128,33 128,84 0,49 -36,80 -134,80l-425 0 0 -71zm1088 -223c-91,0 -127,26 -127,104l0 567 182 0 0 -522c0,-13 7,-19 23,-19l297 0c190,0 273,58 273,164l0 377 184 0 0 -377c0,-186 -150,-294 -457,-294l-375 0zm1438 0c-242,0 -394,109 -394,336 0,226 152,335 394,335l467 0 0 -131 -450 0c-158,0 -227,-60 -227,-204 0,-145 69,-206 227,-206l450 0 0 -130 -467 0zm980 0c-226,0 -316,94 -316,221l0 229c0,127 90,221 316,221l555 0 0 -131 -555 0c-99,0 -139,-39 -139,-93l0 -48 431 0c224,0 308,-70 308,-193 0,-130 -91,-206 -306,-206l-294 0zm-139 223c0,-53 40,-93 139,-93l292 0c90,0 129,33 129,84 0,49 -36,80 -134,80l-426 0 0 -71z"/>
 </g>
</svg>
