<?xml version="1.0" encoding="UTF-8"?>
<!DOCTYPE svg PUBLIC "-//W3C//DTD SVG 1.1//EN" "http://www.w3.org/Graphics/SVG/1.1/DTD/svg11.dtd">
<!-- Creator: CorelDRAW X7 -->
<svg xmlns="http://www.w3.org/2000/svg" xml:space="preserve" width="297mm" height="210mm" version="1.1" shape-rendering="geometricPrecision" text-rendering="geometricPrecision" image-rendering="optimizeQuality" fill-rule="evenodd" clip-rule="evenodd"
viewBox="0 0 29700 21000"
 xmlns:xlink="http://www.w3.org/1999/xlink">
 <defs>
   <linearGradient id="id0" gradientUnits="userSpaceOnUse" x1="12147.2" y1="7146.94" x2="13224.3" y2="9537.74">
    <stop offset="0" stop-opacity="1" stop-color="#3023AE"/>
    <stop offset="1" stop-opacity="1" stop-color="#C86DD7"/>
   </linearGradient>
   <linearGradient id="id1" gradientUnits="userSpaceOnUse" x1="19442.7" y1="10390.5" x2="18278.7" y2="12083.5">
    <stop offset="0" stop-opacity="1" stop-color="#17EAD9"/>
    <stop offset="1" stop-opacity="1" stop-color="#6078EA"/>
   </linearGradient>
 </defs>
 <g id="Camada_x0020_1">
  <metadata id="CorelCorpID_0Corel-Layer"/>
  <path fill="url(#id0)" d="M13625 5363c61,-17 124,15 140,71 15,57 -22,116 -84,133 -62,17 -124,-15 -140,-71 -15,-57 22,-116 84,-133zm-4006 5679l623 0c137,0 249,112 249,249l0 0c0,137 -112,249 -249,249l-623 0c-137,0 -249,-112 -249,-249l0 0c0,-137 112,-249 249,-249zm1343 -13l1447 0 -124 -453c-15,3 -30,4 -46,4l-2537 0c-138,0 -250,-112 -250,-249l0 0c0,-137 112,-249 250,-249l2446 0 -125 -454 -820 0c-137,0 -249,-112 -249,-250l0 0c0,-137 112,-249 249,-249l683 0 -130 -474 -3133 0c-137,0 -249,-112 -249,-249l0 0c0,-137 112,-249 249,-249l2995 0 -121 -441 -1511 0c-137,0 -249,-112 -249,-249l0 0c0,-137 112,-249 249,-249l1374 0 -123 -448 -1970 0c-140,0 -255,-114 -255,-255l0 0c0,-140 115,-254 255,-254l1838 0c-24,-263 144,-514 406,-587l3150 -867c295,-81 602,93 684,388l570 2071 -497 431 -569 -2237 -3070 795 1121 4408 3071 -794 -285 -1120 452 -674 612 2222c81,294 -94,602 -389,683l-3150 867c-271,75 -553,-67 -660,-320l-1589 0c-137,0 -249,-112 -249,-249l0 0c0,-137 112,-249 249,-249zm-1922 -1906l1499 0c137,0 249,112 249,249l0 0c0,137 -112,249 -249,249l-1499 0c-137,0 -249,-112 -249,-249l0 0c0,-137 112,-249 249,-249zm-370 -1919l626 0c137,0 249,113 249,250l0 0c0,137 -112,249 -249,249l-626 0c-137,0 -250,-112 -250,-249l0 0c0,-137 113,-250 250,-250zm4116 -1622l541 -147c60,-17 122,19 139,79l0 0c16,61 -20,123 -80,139l-541 147c-60,17 -123,-19 -139,-79l0 0c-16,-60 19,-123 80,-139zm1741 4862c218,-60 442,60 499,267 57,208 -74,424 -292,485 -219,60 -442,-60 -499,-267 -57,-208 74,-425 292,-485z"/>
  <path fill="none" stroke="#373435" stroke-width="20" d="M-8498 2143l561 0c62,0 113,51 113,113l0 1c0,62 -51,113 -113,113l-561 0c-62,0 -113,-51 -113,-113l0 -1c0,-62 51,-113 113,-113z"/>
  <path fill="url(#id1)" d="M13990 7491l883 667 552 -479 497 -430 1822 -1578 -2646 3949 -1687 -1495 -476 66 -539 -468c44,-189 89,-378 133,-567l472 387 364 -66 26 -159 -416 -338c14,-86 6,-35 43,-258 123,-28 245,-57 367,-86l608 500 -3 355z"/>
 </g>
</svg>
